{"glyphs":{"0":{"ha":304,"x_min":43,"x_max":304,"o":"m 217 43 l 217 347 l 130 347 l 130 43 l 217 43 m 87 0 l 87 43 l 43 43 l 43 347 l 87 347 l 87 391 l 260 391 l 260 347 l 304 347 l 304 43 l 260 43 l 260 0 l 87 0 z "},"1":{"ha":217,"x_min":43,"x_max":217,"o":"m 43 304 l 43 347 l 87 347 l 87 304 l 43 304 m 130 0 l 130 347 l 87 347 l 87 391 l 217 391 l 217 0 l 130 0 z "},"2":{"ha":304,"x_min":43,"x_max":304,"o":"m 43 0 l 43 217 l 87 217 l 87 260 l 217 260 l 217 347 l 43 347 l 43 391 l 260 391 l 260 347 l 304 347 l 304 260 l 260 260 l 260 217 l 130 217 l 130 43 l 304 43 l 304 0 l 43 0 z "},"3":{"ha":304,"x_min":43,"x_max":304,"o":"m 43 0 l 43 43 l 217 43 l 217 217 l 130 217 l 130 260 l 217 260 l 217 347 l 43 347 l 43 391 l 260 391 l 260 347 l 304 347 l 304 260 l 260 260 l 260 217 l 304 217 l 304 43 l 260 43 l 260 0 l 43 0 z "},"4":{"ha":304,"x_min":43,"x_max":304,"o":"m 217 0 l 217 174 l 43 174 l 43 260 l 87 260 l 87 304 l 130 304 l 130 347 l 174 347 l 174 391 l 260 391 l 260 347 l 217 347 l 217 304 l 174 304 l 174 260 l 130 260 l 130 217 l 217 217 l 217 260 l 304 260 l 304 0 l 217 0 z "},"5":{"ha":304,"x_min":43,"x_max":304,"o":"m 43 0 l 43 43 l 217 43 l 217 217 l 43 217 l 43 391 l 304 391 l 304 347 l 130 347 l 130 260 l 260 260 l 260 217 l 304 217 l 304 43 l 260 43 l 260 0 l 43 0 z "},"6":{"ha":304,"x_min":43,"x_max":304,"o":"m 260 43 l 260 217 l 304 217 l 304 43 l 260 43 m 87 0 l 87 43 l 43 43 l 43 347 l 87 347 l 87 391 l 304 391 l 304 347 l 130 347 l 130 260 l 260 260 l 260 217 l 130 217 l 130 43 l 260 43 l 260 0 l 87 0 z "},"7":{"ha":304,"x_min":43,"x_max":304,"o":"m 130 0 l 130 217 l 174 217 l 174 304 l 217 304 l 217 347 l 43 347 l 43 391 l 304 391 l 304 304 l 260 304 l 260 217 l 217 217 l 217 0 l 130 0 z "},"8":{"ha":304,"x_min":43,"x_max":304,"o":"m 217 43 l 217 217 l 130 217 l 130 43 l 217 43 m 217 260 l 217 347 l 130 347 l 130 260 l 217 260 m 87 0 l 87 43 l 43 43 l 43 217 l 87 217 l 87 260 l 43 260 l 43 347 l 87 347 l 87 391 l 260 391 l 260 347 l 304 347 l 304 260 l 260 260 l 260 217 l 304 217 l 304 43 l 260 43 l 260 0 l 87 0 z "},"9":{"ha":304,"x_min":43,"x_max":304,"o":"m 217 260 l 217 347 l 130 347 l 130 260 l 217 260 m 87 0 l 87 43 l 217 43 l 217 217 l 87 217 l 87 260 l 43 260 l 43 347 l 87 347 l 87 391 l 260 391 l 260 347 l 304 347 l 304 43 l 260 43 l 260 0 l 87 0 z "},"\u0000":{"ha":0,"x_min":0,"x_max":0,"o":""},"\r":{"ha":0,"x_min":0,"x_max":0,"o":""}," ":{"ha":130,"x_min":0,"x_max":0,"o":""},"!":{"ha":130,"x_min":43,"x_max":130,"o":"m 43 0 l 43 87 l 130 87 l 130 0 l 43 0 m 43 130 l 43 391 l 130 391 l 130 130 l 43 130 z "},"\"":{"ha":174,"x_min":43,"x_max":174,"o":"m 43 391 l 43 477 l 87 477 l 87 391 l 43 391 m 130 391 l 130 477 l 174 477 l 174 391 l 130 391 z "},"#":{"ha":347,"x_min":43,"x_max":347,"o":"m 217 130 l 217 260 l 174 260 l 174 130 l 217 130 m 87 0 l 87 87 l 43 87 l 43 130 l 87 130 l 87 260 l 43 260 l 43 304 l 87 304 l 87 391 l 174 391 l 174 304 l 217 304 l 217 391 l 304 391 l 304 304 l 347 304 l 347 260 l 304 260 l 304 130 l 347 130 l 347 87 l 304 87 l 304 0 l 217 0 l 217 87 l 174 87 l 174 0 l 87 0 z "},"$":{"ha":304,"x_min":43,"x_max":304,"o":"m 217 43 l 217 174 l 174 174 l 174 43 l 217 43 m 174 217 l 174 347 l 130 347 l 130 217 l 174 217 m 130 -43 l 130 0 l 43 0 l 43 43 l 130 43 l 130 174 l 87 174 l 87 217 l 43 217 l 43 347 l 87 347 l 87 391 l 174 391 l 174 434 l 217 434 l 217 391 l 304 391 l 304 347 l 217 347 l 217 217 l 260 217 l 260 174 l 304 174 l 304 43 l 260 43 l 260 0 l 174 0 l 174 -43 l 130 -43 z "},"%":{"ha":391,"x_min":87,"x_max":391,"o":"m 130 43 l 130 87 l 174 87 l 174 43 l 130 43 m 87 87 l 87 130 l 130 130 l 130 87 l 87 87 m 130 130 l 130 174 l 174 174 l 174 130 l 130 130 m 304 174 l 304 217 l 347 217 l 347 174 l 304 174 m 347 217 l 347 260 l 391 260 l 391 217 l 347 217 m 304 260 l 304 304 l 347 304 l 347 260 l 304 260 m 217 0 l 217 87 l 174 87 l 174 130 l 217 130 l 217 347 l 260 347 l 260 260 l 304 260 l 304 217 l 260 217 l 260 0 l 217 0 z "},"&":{"ha":347,"x_min":43,"x_max":347,"o":"m 304 -43 l 304 0 l 347 0 l 347 -43 l 304 -43 m 87 0 l 87 43 l 43 43 l 43 174 l 87 174 l 87 217 l 43 217 l 43 347 l 87 347 l 87 391 l 260 391 l 260 347 l 304 347 l 304 260 l 260 260 l 260 217 l 217 217 l 217 347 l 130 347 l 130 217 l 217 217 l 217 130 l 174 130 l 174 174 l 130 174 l 130 43 l 217 43 l 217 130 l 304 130 l 304 174 l 347 174 l 347 87 l 304 87 l 304 0 l 87 0 z "},"'":{"ha":87,"x_min":43,"x_max":87,"o":"m 43 391 l 43 477 l 87 477 l 87 391 l 43 391 z "},"(":{"ha":174,"x_min":43,"x_max":174,"o":"m 87 0 l 87 43 l 43 43 l 43 347 l 87 347 l 87 391 l 174 391 l 174 347 l 130 347 l 130 43 l 174 43 l 174 0 l 87 0 z "},")":{"ha":174,"x_min":43,"x_max":174,"o":"m 43 0 l 43 43 l 87 43 l 87 347 l 43 347 l 43 391 l 130 391 l 130 347 l 174 347 l 174 43 l 130 43 l 130 0 l 43 0 z "},"*":{"ha":174,"x_min":43,"x_max":174,"o":"m 87 391 l 87 434 l 130 434 l 130 391 l 87 391 m 43 434 l 43 477 l 87 477 l 87 434 l 43 434 m 130 434 l 130 477 l 174 477 l 174 434 l 130 434 m 87 477 l 87 521 l 130 521 l 130 477 l 87 477 z "},"+":{"ha":304,"x_min":43,"x_max":304,"o":"m 130 43 l 130 130 l 43 130 l 43 174 l 130 174 l 130 260 l 217 260 l 217 174 l 304 174 l 304 130 l 217 130 l 217 43 l 130 43 z "},",":{"ha":87,"x_min":43,"x_max":87,"o":"m 65 -43 l 65 0 l 43 0 l 43 43 l 87 43 l 87 -43 l 65 -43 z "},"-":{"ha":304,"x_min":43,"x_max":304,"o":"m 43 130 l 43 174 l 304 174 l 304 130 l 43 130 z "},".":{"ha":87,"x_min":43,"x_max":87,"o":"m 43 0 l 43 43 l 87 43 l 87 0 l 43 0 z "},"/":{"ha":217,"x_min":43,"x_max":217,"o":"m 43 0 l 43 87 l 87 87 l 87 0 l 43 0 m 87 87 l 87 217 l 130 217 l 130 87 l 87 87 m 130 217 l 130 304 l 174 304 l 174 217 l 130 217 m 174 304 l 174 391 l 217 391 l 217 304 l 174 304 z "},":":{"ha":87,"x_min":43,"x_max":87,"o":"m 43 0 l 43 43 l 87 43 l 87 0 l 43 0 m 43 174 l 43 217 l 87 217 l 87 174 l 43 174 z "},";":{"ha":87,"x_min":43,"x_max":87,"o":"m 65 -43 l 65 0 l 43 0 l 43 43 l 87 43 l 87 -43 l 65 -43 m 43 174 l 43 217 l 87 217 l 87 174 l 43 174 z "},"<":{"ha":260,"x_min":43,"x_max":260,"o":"m 43 0 l 43 43 l 65 43 l 65 0 l 43 0 m 87 22 l 87 43 l 130 43 l 130 22 l 87 22 m 130 43 l 130 65 l 174 65 l 174 87 l 217 87 l 217 43 l 130 43 m 217 87 l 217 130 l 260 130 l 260 87 l 217 87 m 174 130 l 174 174 l 217 174 l 217 130 l 174 130 m 130 174 l 130 195 l 174 195 l 174 174 l 130 174 m 43 195 l 43 217 l 130 217 l 130 195 l 43 195 z "},"=":{"ha":304,"x_min":43,"x_max":304,"o":"m 43 87 l 43 130 l 304 130 l 304 87 l 43 87 m 43 174 l 43 217 l 304 217 l 304 174 l 43 174 z "},">":{"ha":260,"x_min":43,"x_max":260,"o":"m 174 43 l 174 65 l 260 65 l 260 43 l 174 43 m 130 65 l 130 87 l 174 87 l 174 65 l 130 65 m 87 87 l 87 130 l 130 130 l 130 87 l 87 87 m 43 130 l 43 174 l 87 174 l 87 130 l 43 130 m 87 174 l 87 217 l 130 217 l 130 174 l 87 174 m 130 217 l 130 239 l 174 239 l 174 217 l 130 217 m 174 239 l 174 260 l 260 260 l 260 239 l 174 239 z "},"?":{"ha":304,"x_min":43,"x_max":304,"o":"m 130 0 l 130 87 l 217 87 l 217 0 l 130 0 m 130 130 l 130 217 l 174 217 l 174 260 l 217 260 l 217 347 l 43 347 l 43 391 l 260 391 l 260 347 l 304 347 l 304 217 l 260 217 l 260 174 l 217 174 l 217 130 l 130 130 z "},"@":{"ha":608,"x_min":43,"x_max":608,"o":"m 391 434 l 391 521 l 347 521 l 347 434 l 391 434 m 217 0 l 217 43 l 174 43 l 174 87 l 130 87 l 130 130 l 87 130 l 87 217 l 43 217 l 43 434 l 87 434 l 87 521 l 130 521 l 130 564 l 174 564 l 174 608 l 217 608 l 217 651 l 521 651 l 521 608 l 564 608 l 564 564 l 608 564 l 608 521 l 564 521 l 564 477 l 521 477 l 521 434 l 477 434 l 477 391 l 434 391 l 434 347 l 391 347 l 391 304 l 434 304 l 434 260 l 477 260 l 477 217 l 521 217 l 521 174 l 564 174 l 564 130 l 608 130 l 608 87 l 564 87 l 564 43 l 521 43 l 521 0 l 217 0 z "},"A":{"ha":391,"x_min":43,"x_max":391,"o":"m 260 130 l 260 304 l 174 304 l 174 130 l 260 130 m 43 0 l 43 174 l 87 174 l 87 304 l 130 304 l 130 347 l 174 347 l 174 391 l 260 391 l 260 347 l 304 347 l 304 304 l 347 304 l 347 174 l 391 174 l 391 0 l 304 0 l 304 87 l 130 87 l 130 0 l 43 0 z "},"B":{"ha":347,"x_min":43,"x_max":347,"o":"m 260 43 l 260 174 l 130 174 l 130 43 l 260 43 m 260 217 l 260 347 l 130 347 l 130 217 l 260 217 m 43 0 l 43 391 l 304 391 l 304 347 l 347 347 l 347 217 l 304 217 l 304 174 l 347 174 l 347 43 l 304 43 l 304 0 l 43 0 z "},"C":{"ha":304,"x_min":43,"x_max":304,"o":"m 87 0 l 87 43 l 43 43 l 43 347 l 87 347 l 87 391 l 304 391 l 304 347 l 130 347 l 130 87 l 304 87 l 304 0 l 87 0 z "},"D":{"ha":347,"x_min":43,"x_max":347,"o":"m 260 43 l 260 347 l 130 347 l 130 43 l 260 43 m 43 0 l 43 391 l 304 391 l 304 347 l 347 347 l 347 43 l 304 43 l 304 0 l 43 0 z "},"E":{"ha":347,"x_min":43,"x_max":347,"o":"m 87 0 l 87 43 l 43 43 l 43 347 l 87 347 l 87 391 l 347 391 l 347 347 l 130 347 l 130 217 l 304 217 l 304 174 l 130 174 l 130 87 l 347 87 l 347 0 l 87 0 z "},"F":{"ha":304,"x_min":43,"x_max":304,"o":"m 43 0 l 43 347 l 87 347 l 87 391 l 304 391 l 304 347 l 130 347 l 130 217 l 260 217 l 260 174 l 130 174 l 130 0 l 43 0 z "},"G":{"ha":391,"x_min":43,"x_max":391,"o":"m 130 0 l 130 43 l 87 43 l 87 87 l 43 87 l 43 304 l 87 304 l 87 347 l 130 347 l 130 87 l 304 87 l 304 174 l 174 174 l 174 217 l 391 217 l 391 43 l 347 43 l 347 0 l 130 0 m 304 304 l 304 347 l 130 347 l 130 391 l 347 391 l 347 347 l 391 347 l 391 304 l 304 304 z "},"H":{"ha":347,"x_min":43,"x_max":347,"o":"m 43 0 l 43 391 l 130 391 l 130 217 l 260 217 l 260 391 l 347 391 l 347 0 l 260 0 l 260 174 l 130 174 l 130 0 l 43 0 z "},"I":{"ha":217,"x_min":43,"x_max":217,"o":"m 43 0 l 43 43 l 87 43 l 87 347 l 43 347 l 43 391 l 217 391 l 217 347 l 174 347 l 174 43 l 217 43 l 217 0 l 43 0 z "},"J":{"ha":304,"x_min":43,"x_max":304,"o":"m 43 43 l 43 174 l 130 174 l 130 87 l 87 87 l 87 43 l 43 43 m 87 0 l 87 43 l 217 43 l 217 391 l 304 391 l 304 0 l 87 0 z "},"K":{"ha":347,"x_min":43,"x_max":347,"o":"m 43 0 l 43 391 l 130 391 l 130 260 l 174 260 l 174 304 l 217 304 l 217 347 l 260 347 l 260 391 l 347 391 l 347 304 l 304 304 l 304 260 l 260 260 l 260 217 l 217 217 l 217 174 l 260 174 l 260 130 l 304 130 l 304 87 l 347 87 l 347 0 l 260 0 l 260 43 l 217 43 l 217 87 l 174 87 l 174 130 l 130 130 l 130 0 l 43 0 z "},"L":{"ha":304,"x_min":43,"x_max":304,"o":"m 87 0 l 87 43 l 43 43 l 43 391 l 130 391 l 130 43 l 304 43 l 304 0 l 87 0 z "},"M":{"ha":434,"x_min":43,"x_max":434,"o":"m 217 217 l 217 260 l 260 260 l 260 217 l 217 217 m 174 260 l 174 304 l 217 304 l 217 260 l 174 260 m 260 260 l 260 304 l 304 304 l 304 260 l 260 260 m 43 0 l 43 391 l 130 391 l 130 347 l 174 347 l 174 304 l 130 304 l 130 0 l 43 0 m 347 0 l 347 304 l 304 304 l 304 347 l 347 347 l 347 391 l 434 391 l 434 0 l 347 0 z "},"N":{"ha":391,"x_min":43,"x_max":391,"o":"m 217 130 l 217 217 l 260 217 l 260 130 l 217 130 m 174 217 l 174 304 l 217 304 l 217 217 l 174 217 m 43 0 l 43 391 l 174 391 l 174 304 l 130 304 l 130 0 l 43 0 m 304 0 l 304 43 l 260 43 l 260 130 l 304 130 l 304 391 l 391 391 l 391 0 l 304 0 z "},"O":{"ha":391,"x_min":43,"x_max":391,"o":"m 304 43 l 304 347 l 130 347 l 130 43 l 304 43 m 87 0 l 87 43 l 43 43 l 43 347 l 87 347 l 87 391 l 347 391 l 347 347 l 391 347 l 391 43 l 347 43 l 347 0 l 87 0 z "},"P":{"ha":347,"x_min":43,"x_max":347,"o":"m 260 217 l 260 347 l 130 347 l 130 217 l 260 217 m 43 0 l 43 391 l 304 391 l 304 347 l 347 347 l 347 217 l 304 217 l 304 174 l 130 174 l 130 0 l 43 0 z "},"Q":{"ha":391,"x_min":43,"x_max":391,"o":"m 217 43 l 217 130 l 260 130 l 260 87 l 304 87 l 304 347 l 130 347 l 130 43 l 217 43 m 260 -43 l 260 0 l 87 0 l 87 43 l 43 43 l 43 347 l 87 347 l 87 391 l 347 391 l 347 347 l 391 347 l 391 43 l 347 43 l 347 0 l 391 0 l 391 -43 l 260 -43 z "},"R":{"ha":347,"x_min":43,"x_max":347,"o":"m 260 217 l 260 347 l 130 347 l 130 217 l 260 217 m 43 0 l 43 391 l 304 391 l 304 347 l 347 347 l 347 217 l 304 217 l 304 174 l 347 174 l 347 0 l 260 0 l 260 174 l 130 174 l 130 0 l 43 0 z "},"S":{"ha":304,"x_min":43,"x_max":304,"o":"m 43 0 l 43 43 l 217 43 l 217 174 l 87 174 l 87 217 l 43 217 l 43 347 l 87 347 l 87 391 l 304 391 l 304 347 l 130 347 l 130 217 l 260 217 l 260 174 l 304 174 l 304 43 l 260 43 l 260 0 l 43 0 z "},"T":{"ha":304,"x_min":43,"x_max":304,"o":"m 130 0 l 130 347 l 43 347 l 43 391 l 304 391 l 304 347 l 217 347 l 217 0 l 130 0 z "},"U":{"ha":347,"x_min":43,"x_max":347,"o":"m 87 0 l 87 43 l 43 43 l 43 391 l 130 391 l 130 43 l 260 43 l 260 391 l 347 391 l 347 43 l 304 43 l 304 0 l 87 0 z "},"V":{"ha":391,"x_min":43,"x_max":391,"o":"m 174 0 l 174 43 l 130 43 l 130 130 l 87 130 l 87 260 l 43 260 l 43 391 l 130 391 l 130 260 l 174 260 l 174 130 l 260 130 l 260 260 l 304 260 l 304 391 l 391 391 l 391 260 l 347 260 l 347 130 l 304 130 l 304 43 l 260 43 l 260 0 l 174 0 z "},"W":{"ha":608,"x_min":43,"x_max":608,"o":"m 174 0 l 174 43 l 130 43 l 130 130 l 87 130 l 87 260 l 43 260 l 43 391 l 130 391 l 130 260 l 174 260 l 174 130 l 260 130 l 260 174 l 304 174 l 304 217 l 260 217 l 260 260 l 217 260 l 217 347 l 260 347 l 260 304 l 304 304 l 304 260 l 347 260 l 347 304 l 391 304 l 391 347 l 434 347 l 434 260 l 391 260 l 391 217 l 347 217 l 347 174 l 391 174 l 391 130 l 477 130 l 477 260 l 521 260 l 521 391 l 608 391 l 608 260 l 564 260 l 564 87 l 521 87 l 521 43 l 477 43 l 477 0 l 391 0 l 391 43 l 347 43 l 347 130 l 304 130 l 304 43 l 260 43 l 260 0 l 174 0 z "},"X":{"ha":347,"x_min":43,"x_max":347,"o":"m 43 0 l 43 87 l 87 87 l 87 174 l 130 174 l 130 217 l 87 217 l 87 304 l 43 304 l 43 391 l 130 391 l 130 304 l 174 304 l 174 217 l 217 217 l 217 304 l 260 304 l 260 391 l 347 391 l 347 304 l 304 304 l 304 217 l 260 217 l 260 174 l 304 174 l 304 87 l 347 87 l 347 0 l 260 0 l 260 87 l 217 87 l 217 174 l 174 174 l 174 87 l 130 87 l 130 0 l 43 0 z "},"Y":{"ha":391,"x_min":43,"x_max":391,"o":"m 174 0 l 174 130 l 130 130 l 130 174 l 87 174 l 87 260 l 43 260 l 43 391 l 130 391 l 130 260 l 174 260 l 174 174 l 260 174 l 260 260 l 304 260 l 304 391 l 391 391 l 391 260 l 347 260 l 347 174 l 304 174 l 304 130 l 260 130 l 260 0 l 174 0 z "},"Z":{"ha":434,"x_min":43,"x_max":434,"o":"m 43 0 l 43 43 l 87 43 l 87 87 l 130 87 l 130 130 l 174 130 l 174 174 l 217 174 l 217 217 l 260 217 l 260 260 l 304 260 l 304 304 l 43 304 l 43 391 l 434 391 l 434 304 l 391 304 l 391 260 l 347 260 l 347 217 l 304 217 l 304 174 l 260 174 l 260 130 l 217 130 l 217 87 l 434 87 l 434 0 l 43 0 z "},"[":{"ha":174,"x_min":43,"x_max":174,"o":"m 43 0 l 43 391 l 174 391 l 174 347 l 130 347 l 130 43 l 174 43 l 174 0 l 43 0 z "},"\\":{"ha":217,"x_min":43,"x_max":217,"o":"m 174 0 l 174 87 l 217 87 l 217 0 l 174 0 m 130 87 l 130 217 l 174 217 l 174 87 l 130 87 m 87 217 l 87 304 l 130 304 l 130 217 l 87 217 m 43 304 l 43 391 l 87 391 l 87 304 l 43 304 z "},"]":{"ha":174,"x_min":43,"x_max":174,"o":"m 43 0 l 43 43 l 87 43 l 87 347 l 43 347 l 43 391 l 174 391 l 174 0 l 43 0 z "},"^":{"ha":260,"x_min":43,"x_max":260,"o":"m 43 391 l 43 434 l 87 434 l 87 391 l 43 391 m 217 391 l 217 434 l 260 434 l 260 391 l 217 391 m 87 434 l 87 477 l 130 477 l 130 434 l 87 434 m 174 434 l 174 477 l 217 477 l 217 434 l 174 434 m 130 477 l 130 521 l 174 521 l 174 477 l 130 477 z "},"_":{"ha":304,"x_min":43,"x_max":304,"o":"m 43 -43 l 43 0 l 304 0 l 304 -43 l 43 -43 z "},"`":{"ha":87,"x_min":43,"x_max":87,"o":"m 43 391 l 43 434 l 87 434 l 87 391 l 43 391 z "},"a":{"ha":304,"x_min":43,"x_max":304,"o":"m 87 0 l 87 43 l 217 43 l 217 0 l 87 0 m 43 43 l 43 87 l 87 87 l 87 43 l 43 43 m 260 0 l 260 43 l 217 43 l 217 87 l 87 87 l 87 130 l 217 130 l 217 174 l 43 174 l 43 217 l 260 217 l 260 174 l 304 174 l 304 0 l 260 0 z "},"b":{"ha":304,"x_min":43,"x_max":304,"o":"m 217 43 l 217 174 l 130 174 l 130 43 l 217 43 m 43 0 l 43 347 l 130 347 l 130 217 l 260 217 l 260 174 l 304 174 l 304 43 l 260 43 l 260 0 l 43 0 z "},"c":{"ha":304,"x_min":43,"x_max":304,"o":"m 87 0 l 87 43 l 43 43 l 43 174 l 87 174 l 87 217 l 304 217 l 304 174 l 130 174 l 130 43 l 304 43 l 304 0 l 87 0 z "},"d":{"ha":304,"x_min":43,"x_max":304,"o":"m 217 43 l 217 174 l 130 174 l 130 43 l 217 43 m 87 0 l 87 43 l 43 43 l 43 174 l 87 174 l 87 217 l 217 217 l 217 347 l 304 347 l 304 0 l 87 0 z "},"e":{"ha":304,"x_min":43,"x_max":304,"o":"m 260 130 l 260 174 l 304 174 l 304 130 l 260 130 m 87 0 l 87 43 l 43 43 l 43 174 l 87 174 l 87 217 l 260 217 l 260 174 l 130 174 l 130 130 l 260 130 l 260 87 l 130 87 l 130 43 l 304 43 l 304 0 l 87 0 z "},"f":{"ha":260,"x_min":43,"x_max":260,"o":"m 217 260 l 217 304 l 260 304 l 260 260 l 217 260 m 43 0 l 43 304 l 87 304 l 87 347 l 217 347 l 217 304 l 130 304 l 130 217 l 217 217 l 217 174 l 130 174 l 130 0 l 43 0 z "},"g":{"ha":304,"x_min":43,"x_max":304,"o":"m 217 43 l 217 174 l 130 174 l 130 43 l 217 43 m 87 -87 l 87 -43 l 217 -43 l 217 0 l 87 0 l 87 43 l 43 43 l 43 174 l 87 174 l 87 217 l 304 217 l 304 -43 l 260 -43 l 260 -87 l 87 -87 z "},"h":{"ha":304,"x_min":43,"x_max":304,"o":"m 43 0 l 43 347 l 130 347 l 130 217 l 260 217 l 260 174 l 304 174 l 304 0 l 217 0 l 217 174 l 130 174 l 130 0 l 43 0 z "},"i":{"ha":174,"x_min":43,"x_max":174,"o":"m 87 0 l 87 174 l 43 174 l 43 217 l 174 217 l 174 0 l 87 0 m 87 260 l 87 347 l 174 347 l 174 260 l 87 260 z "},"j":{"ha":260,"x_min":43,"x_max":260,"o":"m 87 -87 l 87 -43 l 43 -43 l 43 43 l 130 43 l 130 -43 l 174 -43 l 174 217 l 260 217 l 260 -87 l 87 -87 m 174 260 l 174 347 l 260 347 l 260 260 l 174 260 z "},"k":{"ha":304,"x_min":43,"x_max":304,"o":"m 260 0 l 260 43 l 304 43 l 304 0 l 260 0 m 217 43 l 217 87 l 260 87 l 260 43 l 217 43 m 174 87 l 174 130 l 217 130 l 217 87 l 174 87 m 174 217 l 174 260 l 217 260 l 217 217 l 174 217 m 217 260 l 217 304 l 260 304 l 260 260 l 217 260 m 43 0 l 43 347 l 130 347 l 130 217 l 174 217 l 174 130 l 130 130 l 130 0 l 43 0 z "},"l":{"ha":130,"x_min":43,"x_max":130,"o":"m 43 0 l 43 347 l 130 347 l 130 0 l 43 0 z "},"m":{"ha":391,"x_min":43,"x_max":391,"o":"m 43 0 l 43 174 l 87 174 l 87 217 l 217 217 l 217 174 l 260 174 l 260 0 l 174 0 l 174 174 l 130 174 l 130 0 l 43 0 m 304 0 l 304 174 l 260 174 l 260 217 l 347 217 l 347 174 l 391 174 l 391 0 l 304 0 z "},"n":{"ha":304,"x_min":43,"x_max":304,"o":"m 43 0 l 43 217 l 260 217 l 260 174 l 304 174 l 304 0 l 217 0 l 217 174 l 130 174 l 130 0 l 43 0 z "},"o":{"ha":260,"x_min":43,"x_max":260,"o":"m 217 43 l 217 174 l 260 174 l 260 43 l 217 43 m 87 0 l 87 43 l 43 43 l 43 174 l 87 174 l 87 217 l 217 217 l 217 174 l 130 174 l 130 43 l 217 43 l 217 0 l 87 0 z "},"p":{"ha":304,"x_min":43,"x_max":304,"o":"m 217 43 l 217 174 l 130 174 l 130 43 l 217 43 m 43 -87 l 43 217 l 260 217 l 260 174 l 304 174 l 304 43 l 260 43 l 260 0 l 130 0 l 130 -87 l 43 -87 z "},"q":{"ha":304,"x_min":43,"x_max":304,"o":"m 217 43 l 217 174 l 130 174 l 130 43 l 217 43 m 217 -87 l 217 0 l 87 0 l 87 43 l 43 43 l 43 174 l 87 174 l 87 217 l 304 217 l 304 -87 l 217 -87 z "},"r":{"ha":260,"x_min":43,"x_max":260,"o":"m 43 0 l 43 217 l 87 217 l 87 174 l 130 174 l 130 0 l 43 0 m 130 174 l 130 217 l 260 217 l 260 174 l 130 174 z "},"s":{"ha":304,"x_min":43,"x_max":304,"o":"m 43 0 l 43 43 l 260 43 l 260 0 l 43 0 m 260 43 l 260 87 l 304 87 l 304 43 l 260 43 m 87 87 l 87 130 l 260 130 l 260 87 l 87 87 m 43 130 l 43 174 l 87 174 l 87 130 l 43 130 m 87 174 l 87 217 l 304 217 l 304 174 l 87 174 z "},"t":{"ha":217,"x_min":43,"x_max":217,"o":"m 130 0 l 130 43 l 87 43 l 87 174 l 43 174 l 43 217 l 87 217 l 87 347 l 174 347 l 174 217 l 217 217 l 217 174 l 174 174 l 174 43 l 217 43 l 217 0 l 130 0 z "},"u":{"ha":304,"x_min":43,"x_max":304,"o":"m 87 0 l 87 43 l 43 43 l 43 217 l 130 217 l 130 43 l 217 43 l 217 217 l 304 217 l 304 43 l 260 43 l 260 0 l 87 0 z "},"v":{"ha":304,"x_min":43,"x_max":304,"o":"m 130 0 l 130 43 l 87 43 l 87 87 l 43 87 l 43 217 l 130 217 l 130 87 l 217 87 l 217 217 l 304 217 l 304 87 l 260 87 l 260 43 l 217 43 l 217 0 l 130 0 z "},"w":{"ha":477,"x_min":43,"x_max":477,"o":"m 130 0 l 130 43 l 87 43 l 87 87 l 43 87 l 43 217 l 130 217 l 130 87 l 217 87 l 217 217 l 304 217 l 304 87 l 391 87 l 391 217 l 477 217 l 477 87 l 434 87 l 434 43 l 391 43 l 391 0 l 304 0 l 304 43 l 217 43 l 217 0 l 130 0 z "},"x":{"ha":260,"x_min":43,"x_max":260,"o":"m 43 0 l 43 87 l 87 87 l 87 130 l 43 130 l 43 217 l 130 217 l 130 130 l 174 130 l 174 217 l 260 217 l 260 130 l 217 130 l 217 87 l 260 87 l 260 0 l 174 0 l 174 87 l 130 87 l 130 0 l 43 0 z "},"y":{"ha":304,"x_min":43,"x_max":304,"o":"m 87 -87 l 87 -43 l 217 -43 l 217 0 l 87 0 l 87 43 l 43 43 l 43 217 l 130 217 l 130 43 l 217 43 l 217 217 l 304 217 l 304 -43 l 260 -43 l 260 -87 l 87 -87 z "},"z":{"ha":304,"x_min":43,"x_max":304,"o":"m 43 0 l 43 87 l 130 87 l 130 43 l 304 43 l 304 0 l 43 0 m 130 87 l 130 130 l 217 130 l 217 87 l 130 87 m 217 130 l 217 174 l 43 174 l 43 217 l 304 217 l 304 130 l 217 130 z "},"{":{"ha":217,"x_min":43,"x_max":217,"o":"m 130 0 l 130 43 l 87 43 l 87 174 l 43 174 l 43 217 l 87 217 l 87 347 l 130 347 l 130 391 l 217 391 l 217 347 l 174 347 l 174 43 l 217 43 l 217 0 l 130 0 z "},"|":{"ha":130,"x_min":43,"x_max":130,"o":"m 43 0 l 43 391 l 130 391 l 130 0 l 43 0 z "},"}":{"ha":217,"x_min":43,"x_max":217,"o":"m 43 0 l 43 43 l 87 43 l 87 347 l 43 347 l 43 391 l 130 391 l 130 347 l 174 347 l 174 217 l 217 217 l 217 174 l 174 174 l 174 43 l 130 43 l 130 0 l 43 0 z "},"~":{"ha":347,"x_min":43,"x_max":347,"o":"m 43 87 l 43 130 l 87 130 l 87 87 l 43 87 m 217 87 l 217 130 l 260 130 l 260 87 l 217 87 m 87 130 l 87 174 l 130 174 l 130 130 l 87 130 m 174 130 l 174 174 l 217 174 l 217 130 l 174 130 m 260 130 l 260 174 l 304 174 l 304 130 l 260 130 m 130 174 l 130 217 l 174 217 l 174 174 l 130 174 m 304 174 l 304 217 l 347 217 l 347 174 l 304 174 z "},"¡":{"ha":130,"x_min":43,"x_max":130,"o":"m 43 0 l 43 260 l 130 260 l 130 0 l 43 0 m 43 304 l 43 391 l 130 391 l 130 304 l 43 304 z "},"¦":{"ha":130,"x_min":43,"x_max":130,"o":"m 43 0 l 43 130 l 130 130 l 130 0 l 43 0 m 43 174 l 43 391 l 130 391 l 130 174 l 43 174 z "},"¨":{"ha":174,"x_min":43,"x_max":174,"o":"m 43 347 l 43 391 l 87 391 l 87 347 l 43 347 m 130 347 l 130 391 l 174 391 l 174 347 l 130 347 z "},"©":{"ha":260,"x_min":43,"x_max":260,"o":"m 87 434 l 87 456 l 217 456 l 217 434 l 87 434 m 130 477 l 130 521 l 217 521 l 217 477 l 130 477 m 87 521 l 87 564 l 130 564 l 130 521 l 87 521 m 43 477 l 43 608 l 65 608 l 65 477 l 43 477 m 130 564 l 130 608 l 217 608 l 217 564 l 130 564 m 239 477 l 239 608 l 260 608 l 260 477 l 239 477 m 87 629 l 87 651 l 217 651 l 217 629 l 87 629 z "},"ª":{"ha":130,"x_min":65,"x_max":152,"o":"m 87 282 l 87 304 l 130 304 l 130 282 l 87 282 m 65 304 l 65 347 l 130 347 l 130 369 l 87 369 l 87 391 l 152 391 l 152 304 l 130 304 l 130 326 l 87 326 l 87 304 l 65 304 z "},"«":{"ha":260,"x_min":43,"x_max":260,"o":"m 130 43 l 130 87 l 174 87 l 174 43 l 130 43 m 217 43 l 217 87 l 260 87 l 260 43 l 217 43 m 87 87 l 87 130 l 130 130 l 130 87 l 87 87 m 174 87 l 174 130 l 217 130 l 217 87 l 174 87 m 43 130 l 43 174 l 87 174 l 87 130 l 43 130 m 130 130 l 130 174 l 174 174 l 174 130 l 130 130 m 87 174 l 87 217 l 130 217 l 130 174 l 87 174 m 174 174 l 174 217 l 217 217 l 217 174 l 174 174 m 130 217 l 130 260 l 174 260 l 174 217 l 130 217 m 217 217 l 217 260 l 260 260 l 260 217 l 217 217 z "},"¬":{"ha":217,"x_min":43,"x_max":217,"o":"m 174 87 l 174 130 l 43 130 l 43 174 l 217 174 l 217 87 l 174 87 z "},"­":{"ha":174,"x_min":43,"x_max":174,"o":"m 43 130 l 43 174 l 174 174 l 174 130 l 43 130 z "},"®":{"ha":260,"x_min":43,"x_max":260,"o":"m 87 434 l 87 456 l 217 456 l 217 434 l 87 434 m 174 543 l 174 564 l 130 564 l 130 543 l 174 543 m 43 477 l 43 608 l 65 608 l 65 477 l 43 477 m 87 477 l 87 608 l 195 608 l 195 521 l 217 521 l 217 477 l 174 477 l 174 521 l 130 521 l 130 477 l 87 477 m 239 477 l 239 608 l 260 608 l 260 477 l 239 477 m 87 629 l 87 651 l 217 651 l 217 629 l 87 629 z "},"¯":{"ha":260,"x_min":43,"x_max":260,"o":"m 43 347 l 43 391 l 260 391 l 260 347 l 43 347 z "},"°":{"ha":174,"x_min":43,"x_max":174,"o":"m 130 434 l 130 477 l 87 477 l 87 434 l 130 434 m 43 391 l 43 521 l 174 521 l 174 391 l 43 391 z "},"±":{"ha":260,"x_min":43,"x_max":260,"o":"m 43 0 l 43 43 l 130 43 l 130 130 l 43 130 l 43 174 l 130 174 l 130 260 l 174 260 l 174 174 l 260 174 l 260 130 l 174 130 l 174 43 l 260 43 l 260 0 l 43 0 z "},"²":{"ha":174,"x_min":43,"x_max":174,"o":"m 65 391 l 65 434 l 87 434 l 87 412 l 174 412 l 174 391 l 65 391 m 87 434 l 87 456 l 130 456 l 130 477 l 152 477 l 152 434 l 87 434 m 43 477 l 43 499 l 130 499 l 130 477 l 43 477 z "},"³":{"ha":174,"x_min":43,"x_max":174,"o":"m 43 412 l 43 434 l 152 434 l 152 477 l 130 477 l 130 456 l 87 456 l 87 477 l 43 477 l 43 499 l 174 499 l 174 412 l 43 412 z "},"´":{"ha":130,"x_min":43,"x_max":130,"o":"m 43 391 l 43 434 l 87 434 l 87 391 l 43 391 m 87 434 l 87 477 l 130 477 l 130 434 l 87 434 z "},"µ":{"ha":260,"x_min":43,"x_max":260,"o":"m 217 -43 l 217 0 l 260 0 l 260 -43 l 217 -43 m 43 -130 l 43 217 l 87 217 l 87 43 l 217 43 l 217 0 l 87 0 l 87 -130 l 43 -130 m 217 43 l 217 217 l 260 217 l 260 43 l 217 43 z "},"¶":{"ha":260,"x_min":43,"x_max":260,"o":"m 87 87 l 87 130 l 43 130 l 43 174 l 87 174 l 87 217 l 130 217 l 130 87 l 87 87 m 152 -130 l 152 217 l 260 217 l 260 -130 l 152 -130 z "},"·":{"ha":130,"x_min":87,"x_max":130,"o":"m 87 174 l 87 217 l 130 217 l 130 174 l 87 174 z "},"¹":{"ha":130,"x_min":43,"x_max":130,"o":"m 87 391 l 87 434 l 43 434 l 43 477 l 87 477 l 87 521 l 130 521 l 130 391 l 87 391 z "},"º":{"ha":174,"x_min":43,"x_max":174,"o":"m 130 434 l 130 477 l 87 477 l 87 434 l 130 434 m 43 391 l 43 521 l 174 521 l 174 391 l 43 391 z "},"»":{"ha":260,"x_min":43,"x_max":260,"o":"m 43 43 l 43 87 l 87 87 l 87 43 l 43 43 m 130 43 l 130 87 l 174 87 l 174 43 l 130 43 m 87 87 l 87 130 l 130 130 l 130 87 l 87 87 m 174 87 l 174 130 l 217 130 l 217 87 l 174 87 m 130 130 l 130 174 l 174 174 l 174 130 l 130 130 m 217 130 l 217 174 l 260 174 l 260 130 l 217 130 m 87 174 l 87 217 l 130 217 l 130 174 l 87 174 m 174 174 l 174 217 l 217 217 l 217 174 l 174 174 m 43 217 l 43 260 l 87 260 l 87 217 l 43 217 m 130 217 l 130 260 l 174 260 l 174 217 l 130 217 z "},"¿":{"ha":304,"x_min":43,"x_max":304,"o":"m 87 0 l 87 43 l 43 43 l 43 174 l 87 174 l 87 217 l 130 217 l 130 260 l 217 260 l 217 174 l 174 174 l 174 130 l 130 130 l 130 43 l 304 43 l 304 0 l 87 0 m 130 304 l 130 391 l 217 391 l 217 304 l 130 304 z "},"Á":{"ha":391,"x_min":43,"x_max":391,"o":"m 260 130 l 260 304 l 174 304 l 174 130 l 260 130 m 43 0 l 43 174 l 87 174 l 87 304 l 130 304 l 130 347 l 174 347 l 174 391 l 260 391 l 260 347 l 304 347 l 304 304 l 347 304 l 347 174 l 391 174 l 391 0 l 304 0 l 304 87 l 130 87 l 130 0 l 43 0 m 217 434 l 217 477 l 260 477 l 260 434 l 217 434 m 260 477 l 260 521 l 304 521 l 304 477 l 260 477 z "},"Ç":{"ha":304,"x_min":43,"x_max":304,"o":"m 217 -87 l 217 -43 l 260 -43 l 260 -87 l 217 -87 m 260 -43 l 260 0 l 87 0 l 87 43 l 43 43 l 43 347 l 87 347 l 87 391 l 304 391 l 304 347 l 130 347 l 130 87 l 304 87 l 304 -43 l 260 -43 z "},"É":{"ha":347,"x_min":43,"x_max":347,"o":"m 87 0 l 87 43 l 43 43 l 43 347 l 87 347 l 87 391 l 347 391 l 347 347 l 130 347 l 130 217 l 304 217 l 304 174 l 130 174 l 130 87 l 347 87 l 347 0 l 87 0 m 217 434 l 217 477 l 260 477 l 260 434 l 217 434 m 260 477 l 260 521 l 304 521 l 304 477 l 260 477 z "},"Í":{"ha":217,"x_min":43,"x_max":217,"o":"m 43 0 l 43 43 l 87 43 l 87 347 l 43 347 l 43 391 l 217 391 l 217 347 l 174 347 l 174 43 l 217 43 l 217 0 l 43 0 m 130 434 l 130 477 l 174 477 l 174 434 l 130 434 m 174 477 l 174 521 l 217 521 l 217 477 l 174 477 z "},"Ñ":{"ha":391,"x_min":43,"x_max":391,"o":"m 217 130 l 217 217 l 260 217 l 260 130 l 217 130 m 174 217 l 174 304 l 217 304 l 217 217 l 174 217 m 43 0 l 43 391 l 174 391 l 174 304 l 130 304 l 130 0 l 43 0 m 304 0 l 304 43 l 260 43 l 260 130 l 304 130 l 304 391 l 391 391 l 391 0 l 304 0 m 130 434 l 130 477 l 304 477 l 304 434 l 130 434 z "},"Ó":{"ha":391,"x_min":43,"x_max":391,"o":"m 304 43 l 304 347 l 130 347 l 130 43 l 304 43 m 87 0 l 87 43 l 43 43 l 43 347 l 87 347 l 87 391 l 347 391 l 347 347 l 391 347 l 391 43 l 347 43 l 347 0 l 87 0 m 217 434 l 217 477 l 260 477 l 260 434 l 217 434 m 260 477 l 260 521 l 304 521 l 304 477 l 260 477 z "},"×":{"ha":260,"x_min":43,"x_max":260,"o":"m 43 43 l 43 87 l 87 87 l 87 43 l 43 43 m 217 43 l 217 87 l 260 87 l 260 43 l 217 43 m 87 87 l 87 130 l 130 130 l 130 87 l 87 87 m 174 87 l 174 130 l 217 130 l 217 87 l 174 87 m 130 130 l 130 174 l 174 174 l 174 130 l 130 130 m 87 174 l 87 217 l 130 217 l 130 174 l 87 174 m 174 174 l 174 217 l 217 217 l 217 174 l 174 174 m 43 217 l 43 260 l 87 260 l 87 217 l 43 217 m 217 217 l 217 260 l 260 260 l 260 217 l 217 217 z "},"Ú":{"ha":347,"x_min":43,"x_max":347,"o":"m 87 0 l 87 43 l 43 43 l 43 391 l 130 391 l 130 43 l 260 43 l 260 391 l 347 391 l 347 43 l 304 43 l 304 0 l 87 0 m 217 434 l 217 477 l 260 477 l 260 434 l 217 434 m 260 477 l 260 521 l 304 521 l 304 477 l 260 477 z "},"á":{"ha":304,"x_min":43,"x_max":304,"o":"m 87 0 l 87 43 l 217 43 l 217 0 l 87 0 m 43 43 l 43 87 l 87 87 l 87 43 l 43 43 m 260 0 l 260 43 l 217 43 l 217 87 l 87 87 l 87 130 l 217 130 l 217 174 l 43 174 l 43 217 l 260 217 l 260 174 l 304 174 l 304 0 l 260 0 m 174 260 l 174 304 l 217 304 l 217 260 l 174 260 m 217 304 l 217 347 l 260 347 l 260 304 l 217 304 z "},"ç":{"ha":304,"x_min":43,"x_max":304,"o":"m 217 -87 l 217 -43 l 260 -43 l 260 -87 l 217 -87 m 260 -43 l 260 0 l 87 0 l 87 43 l 43 43 l 43 174 l 87 174 l 87 217 l 304 217 l 304 174 l 130 174 l 130 43 l 304 43 l 304 -43 l 260 -43 z "},"é":{"ha":304,"x_min":43,"x_max":304,"o":"m 260 130 l 260 174 l 304 174 l 304 130 l 260 130 m 87 0 l 87 43 l 43 43 l 43 174 l 87 174 l 87 217 l 260 217 l 260 174 l 130 174 l 130 130 l 260 130 l 260 87 l 130 87 l 130 43 l 304 43 l 304 0 l 87 0 m 174 260 l 174 304 l 217 304 l 217 260 l 174 260 m 217 304 l 217 347 l 260 347 l 260 304 l 217 304 z "},"í":{"ha":174,"x_min":43,"x_max":174,"o":"m 87 0 l 87 174 l 43 174 l 43 217 l 174 217 l 174 0 l 87 0 m 87 260 l 87 304 l 130 304 l 130 260 l 87 260 m 130 304 l 130 347 l 174 347 l 174 304 l 130 304 z "},"ñ":{"ha":304,"x_min":43,"x_max":304,"o":"m 43 0 l 43 217 l 260 217 l 260 174 l 304 174 l 304 0 l 217 0 l 217 174 l 130 174 l 130 0 l 43 0 m 87 260 l 87 304 l 260 304 l 260 260 l 87 260 z "},"ó":{"ha":260,"x_min":43,"x_max":260,"o":"m 217 43 l 217 174 l 260 174 l 260 43 l 217 43 m 87 0 l 87 43 l 43 43 l 43 174 l 87 174 l 87 217 l 217 217 l 217 174 l 130 174 l 130 43 l 217 43 l 217 0 l 87 0 m 130 260 l 130 304 l 174 304 l 174 260 l 130 260 m 174 304 l 174 347 l 217 347 l 217 304 l 174 304 z "},"÷":{"ha":260,"x_min":43,"x_max":260,"o":"m 130 43 l 130 87 l 174 87 l 174 43 l 130 43 m 43 130 l 43 174 l 260 174 l 260 130 l 43 130 m 130 217 l 130 260 l 174 260 l 174 217 l 130 217 z "},"ú":{"ha":304,"x_min":43,"x_max":304,"o":"m 87 0 l 87 43 l 43 43 l 43 217 l 130 217 l 130 43 l 217 43 l 217 217 l 304 217 l 304 43 l 260 43 l 260 0 l 87 0 m 174 260 l 174 304 l 217 304 l 217 260 l 174 260 m 217 304 l 217 347 l 260 347 l 260 304 l 217 304 z "},"—":{"ha":347,"x_min":43,"x_max":347,"o":"m 43 130 l 43 174 l 347 174 l 347 130 l 43 130 z "},"‘":{"ha":109,"x_min":43,"x_max":109,"o":"m 43 391 l 43 521 l 87 521 l 87 477 l 109 477 l 109 391 l 43 391 z "},"’":{"ha":65,"x_min":22,"x_max":87,"o":"m 43 391 l 43 434 l 22 434 l 22 521 l 87 521 l 87 391 l 43 391 z "},"“":{"ha":195,"x_min":65,"x_max":217,"o":"m 65 391 l 65 521 l 130 521 l 130 434 l 87 434 l 87 391 l 65 391 m 152 391 l 152 521 l 217 521 l 217 434 l 174 434 l 174 391 l 152 391 z "},"”":{"ha":195,"x_min":65,"x_max":217,"o":"m 109 391 l 109 434 l 65 434 l 65 521 l 130 521 l 130 391 l 109 391 m 195 391 l 195 434 l 152 434 l 152 521 l 217 521 l 217 391 l 195 391 z "},"…":{"ha":260,"x_min":43,"x_max":260,"o":"m 43 0 l 43 43 l 87 43 l 87 0 l 43 0 m 130 0 l 130 43 l 174 43 l 174 0 l 130 0 m 217 0 l 217 43 l 260 43 l 260 0 l 217 0 z "},"™":{"ha":304,"x_min":43,"x_max":304,"o":"m 239 521 l 239 564 l 260 564 l 260 521 l 239 521 m 43 586 l 43 608 l 87 608 l 87 586 l 43 586 m 109 477 l 109 608 l 174 608 l 174 586 l 130 586 l 130 477 l 109 477 m 195 477 l 195 608 l 217 608 l 217 477 l 195 477 m 282 477 l 282 608 l 304 608 l 304 477 l 282 477 z "}}}
